<svg width="43" height="42" viewBox="0 0 43 42" fill="none" xmlns="http://www.w3.org/2000/svg"><g filter="url(#a)" fill="#63D1BB"><path d="M4.3056 13.9528c-.4075 2.0775-.4075 4.1551 0 6.2326l4.176-3.1658-4.176-3.0668ZM28.852 1.586c-4.8889-2.1765-10.5926-2.1765-15.5834.3957l7.6389 5.5402L28.852 1.586ZM38.528 13.062l-4.8889 3.6605 4.9908 3.6604c.5093-2.3743.5093-4.9465-.1019-7.3209ZM13.3705 32.057c4.8889 2.4733 10.8982 2.6711 15.9908.0989l-8.25-6.0348-7.7408 5.9359ZM12.0464 14.2488 5.7315 9.698c-.3055.6925-.6111 1.385-.8148 2.0776l5.3982 3.9572 1.7315-1.484ZM22.9446 24.8349l8.4537 6.1337c.3056-.1979.6112-.3957.8149-.5936.3055-.1978.6111-.4946.9166-.7914l-8.4537-6.1338-1.7315 1.3851ZM15.6112 11.5781l-7.537-5.4413c-.5093.4947-.9167 1.0883-1.3242 1.6819l7.0279 5.1444 1.8333-1.385ZM26.5094 22.1635l8.2501 6.0348c.5093-.4947.9167-1.0883 1.3241-1.6818l-7.8427-5.7381-1.7315 1.3851ZM19.176 8.907l-7.8426-5.738c-.2037.0989-.4074.2967-.6111.3957-.4074.2968-.8148.5936-1.1204.9893l7.8427 5.6391L19.176 8.907ZM30.0743 19.3936l7.1297 5.1444c.3055-.6925.6111-1.2861.9166-1.9786l-6.213-4.5509-1.8333 1.3851ZM30.8891 2.6742 4.9167 22.3615c.2037.6925.5093 1.3851.8148 2.0776l26.991-20.4788c-.5093-.4947-1.1204-.8904-1.8334-1.2861ZM35.2688 6.5323c-.3056-.3957-.6112-.7914-.9167-1.0882L6.8519 26.2197c.2037.4946.5092.8903.8148 1.1871.1018.1979.3055.3958.4074.4947L35.778 7.1259c-.2037-.1978-.3055-.3957-.5092-.5936ZM36.8984 8.9067 9.7037 29.4844c.5093.4947 1.1204.9894 1.7315 1.3851l26.4817-19.9841c-.3055-.6926-.6111-1.385-1.0185-1.9787Z"/></g><defs><filter id="a" x="0" y="0" width="43" height="42.0001" filterUnits="userSpaceOnUse" color-interpolation-filters="sRGB"><feFlood flood-opacity="0" result="BackgroundImageFix"/><feColorMatrix in="SourceAlpha" values="0 0 0 0 0 0 0 0 0 0 0 0 0 0 0 0 0 0 127 0" result="hardAlpha"/><feOffset dy="4"/><feGaussianBlur stdDeviation="2"/><feComposite in2="hardAlpha" operator="out"/><feColorMatrix values="0 0 0 0 0 0 0 0 0 0 0 0 0 0 0 0 0 0 0.25 0"/><feBlend in2="BackgroundImageFix" result="effect1_dropShadow_44_133"/><feBlend in="SourceGraphic" in2="effect1_dropShadow_44_133" result="shape"/></filter></defs></svg>