<svg style="display: none;" xmlns="http://www.w3.org/2000/svg">
      <symbol viewBox="0 0 18 18" id="icon-search">
        <path
          d="m17.693 16.057-3.477-3.477c1.023-1.33 1.534-2.966 1.534-4.705C15.75 3.477 12.273 0 7.875 0S0 3.477 0 7.875s3.477 7.875 7.875 7.875c1.739 0 3.375-.614 4.704-1.534l3.478 3.477c.204.205.409.307.818.307.614 0 1.125-.511 1.125-1.125 0-.204-.102-.511-.307-.818ZM2.25 7.875c0-3.068 2.557-5.625 5.625-5.625S13.5 4.807 13.5 7.875 10.943 13.5 7.875 13.5 2.25 10.943 2.25 7.875Z" />
      </symbol>

      <symbol viewBox="0 0 21 18" id="icon-cart">
        <path
          d="M20.188 6.857h-3.55L13.188.381C12.985 0 12.58-.095 12.174.095s-.507.572-.304.953l3.145 5.81H5.783l3.145-5.81c.202-.381 0-.762-.305-.953-.406-.19-.811 0-1.014.286l-3.45 6.476H.812c-.406 0-.812.286-.812.762 0 .381.304.762.812.762h.202l.914 2.857c-.203.095-.305.286-.305.572 0 .38.305.666.71.666L4.058 18h12.884l1.725-5.524c.405 0 .71-.286.71-.667 0-.19-.102-.476-.304-.57l.912-2.858h.203c.406 0 .812-.286.812-.762 0-.476-.406-.762-.812-.762Zm-4.565 9.62H5.073L3.854 12.38h13.087l-1.319 4.095Zm1.623-5.525H3.348l-.812-2.666h15.522l-.812 2.666Z" />
      </symbol>

      <symbol viewBox="0 0 41 62" id="icon-interior">
        <path
          d="M15.502 37.656c-.306.994-.204 2.186 0 3.577.51 2.584 1.734 5.962 2.448 9.638h5.202c.714-3.577 1.938-6.955 2.55-9.638.305-1.39.305-2.682 0-3.577-.307-.894-.919-1.59-2.04-2.285h-6.12c-1.224.696-1.836 1.391-2.04 2.285ZM27.537 57.528H13.463c-1.326 0-2.346.994-2.346 2.186V61.9H29.883v-2.186c0-1.192-1.02-2.186-2.346-2.186ZM34.779 2.186H22.846C22.846.994 21.826 0 20.5 0s-2.346.994-2.346 2.186H6.221L0 27.522c.816-.496 1.632-.993 2.652-.993 1.428 0 2.244.795 2.957 1.39.714.597 1.224.796 1.428.796.306 0 .816-.298 1.53-.795.714-.497 1.632-1.391 2.958-1.391 1.326 0 2.244.795 2.958 1.39.713.498 1.223.796 1.53.796.101 0 .305-.1.611-.199.204-.1.51-.397.918-.596.51-.398 1.122-.994 2.04-1.192.306-.1.612-.1.918-.1 1.326 0 2.244.795 2.958 1.391.714.497 1.224.795 1.53.795.306 0 .816-.298 1.427-.795.714-.596 1.632-1.39 2.958-1.39 1.428 0 2.244.794 2.958 1.39.306.298.612.497.918.596.204.1.408.2.612.2.306 0 .816-.299 1.428-.895.713-.596 1.631-1.391 2.957-1.391 1.02 0 1.836.497 2.652.993l-6.12-25.336ZM23.968 53.057H16.93c-.714 0-1.121.497-1.121 1.093s.51 1.093 1.121 1.093h7.038c.714 0 1.122-.497 1.122-1.093.102-.596-.408-1.093-1.122-1.093Z" />
        <path
          d="M20.5 28.714c-.102 0-.306.1-.612.199-.204.1-.408.298-.612.397v3.677h2.346V29.41c-.51-.398-.918-.696-1.122-.696Z" />
      </symbol>

      <symbol viewBox="0 0 61 61" id="icon-toys">
        <path
          d="M0 44.73 27.86 61V37.15L0 20.78v23.95Zm52.16-32.04v2.56c0 1.84-3.56 3.38-7.83 3.38-4.38 0-7.83-1.54-7.83-3.38v-4.2c.3 1.74 3.66 3.18 7.83 3.18 4.37 0 7.83-1.54 7.83-3.38 0-1.84-3.56-3.38-7.83-3.38H43.3L38.23 4.5v3.18c0 1.84-3.56 3.37-7.83 3.37-2.75 0-5.08-.61-6.5-1.53-.21-.2-.41-.41-.72-.62-.4-.4-.61-.81-.61-1.22V4.6l-4.88 2.86h-1.12c-4.37 0-7.83 1.54-7.83 3.38 0 1.84 3.56 3.38 7.83 3.38 4.17 0 7.52-1.44 7.83-3.18v4.2c0 1.84-3.56 3.38-7.83 3.38-4.37 0-7.83-1.54-7.83-3.38v-2.46l-6.1 3.59L30.6 32.75l27.86-16.27-6.3-3.79ZM38.33 23.13c0 1.84-3.56 3.38-7.83 3.38-4.37 0-7.83-1.54-7.83-3.38v-4.2c.3 1.74 3.66 3.18 7.83 3.18s7.52-1.44 7.83-3.18v4.2Zm-5.19 14.23V61L61 44.73V21.08L33.14 37.36ZM30.4 6.76c4.37 0 7.83-1.54 7.83-3.38C38.23 1.54 34.67 0 30.4 0c-4.37 0-7.83 1.54-7.83 3.38 0 1.84 3.46 3.38 7.83 3.38Z" />
      </symbol>

      <symbol viewBox="0 0 50 26" id="arrow-left">
        <path d="M50 11H7.7l8.1-8.2L13 0 0 13l13 13 2.8-2.8L7.7 15H50v-4Z" />
      </symbol>

      <symbol viewBox="0 0 50 26" id="arrow-right">
        <path d="M0 11h42.3l-8.1-8.2L37 0l13 13-13 13-2.8-2.8 8.1-8.2H0v-4Z" />
      </symbol>

      <symbol viewBox="0 0 102 35" id="footer-logo">
        <path
          d="M19.22 21.5c-.1-2.7-.5-5.3-.5-8 0-2.2.4-4.4-.4-6.5 0-.2.1-.5.1-.7.2-1-3.3-.5-3.8.5-.3.3-.5.6-.4 1 0 .1.1.2.1.3-.7 3.2-1.6 6.3-2.6 9.4-.4 1.2-.9 2.3-1.3 3.5-.6-1.1-1.2-2.2-1.6-3.4-1.4-3.4-2.6-6.9-4.3-10.2.2-1.5-3.2-1.4-3.9 0-.8 1.7-.7 3.4-.4 5.2.3 2 .4 4 .4 6.1 0 4 .4 7.9.4 11.9-.4.4-.5.9-.1 1.4.2.2.4.4.6.5 1 .7 3.6.1 3.6-1.3 0-4.1-.3-8.2-.4-12.4v-1.2c.1.1.1.3.2.4.6 1.6 1.3 3.2 2.2 4.7.9 1.5 1.3 3.1 1.8 4.7-.2.2-.3.5-.2.7 0 .2.1.3.3.4.6.5 1.8.3 2.5 0 .3-.1.6-.3.8-.4.3-.2.9-.7.7-1.2 0-.1-.1-.2-.1-.3.5-1.3.7-2.6 1-3.9.3-1.4.8-2.8 1.3-4.1.1.6.1 1.2.2 1.9.2 2.6 0 5.1 0 7.6 0 .8.1 1.6.2 2.5.1.3.4 1.8.3 1.9-.8.5-.6 1.1.2 1.3.9.2 2.1-.1 2.8-.7 1.2-1.1.6-2.8.4-4.2-.5-2.4 0-5-.1-7.4ZM27.62 22.2c-.1-2-.8-3.9-.8-5.9 0-2.3.2-4.6-.2-6.9-.1-.7-4.1.1-3.9 1 .3 2.1.2 4.2.2 6.4 0 2 .5 3.9.7 5.9.3 2.1-.1 4.2.1 6.2.1 1 .8 2.7.1 3.6-.4.5 1.5.3 1.6.3.8-.1 1.8-.4 2.3-1 .7-.8.2-2.4.1-3.4-.3-2-.1-4.2-.2-6.2ZM43.92 18.9c-2.1-2.8-5.9-.8-8.6-1.5-1.4-.4-1.4-2.3-1.4-3.4 0-1.4-.1-2.7-.3-4.1-.1-1.1 0-2.1.7-2.9.1-.1.9-.3.8-.3.4-.1.7-.1 1.1-.1 1.5-.1 4.6.2 4 2.5-.3 1 3.6.4 3.9-.6 1.2-4.6-7.3-3.7-9.7-3.1-2.2.6-4.6 1.8-4.8 4.4-.1 1.2.3 2.4.3 3.6.1 1.4-.2 2.8.3 4.1 1.1 3 5.5 1.6 7.8 1.7 3.8.3 2.7 5.5 2.7 7.9 0 1.3 1.2 3.4.2 4.5-.6.7-2 .7-2.8.8-.8.1-2.2.3-2.7-.5-1-1.4.1-3.8-.1-5.4-.1-.9-4.1-.1-3.9 1 .3 2.6-1.4 6.1 2.4 6.6 2.4.3 5.2-.2 7.5-.9 1.2-.4 2.3-.9 3.2-1.8 1-.9.7-2.3.4-3.5-.5-3.1.9-6.5-1-9ZM61.32 18.7c-.1-3.8-.7-7.5-.7-11.3 0-2-4-1.3-4 .3 0 3.6.5 7.2.7 10.8v.2c-1.9 0-3.9.2-5.9.2.2-4.6-.6-9.2-.4-13.9 0-.6-3.9-.1-3.9 1-.2 4.5.6 8.9.5 13.4-.1 2.1-.2 4.3-.3 6.4 0 1.1.2 2.2.3 3.3.1 1 .5 2.3.2 3.3-.2.8 3.6.3 3.9-.7.5-1.8-.2-4-.4-5.8-.2-1.7 0-3.5.1-5.2 2-.1 4.1-.3 6.1 0 .1 1.4.2 2.8.3 4.1.1 1.2.2 2.3.2 3.5 0 1 .1 2.5-.2 3.5-.8 2.1 3.1 1.9 3.7.4.7-1.9.5-4.2.4-6.2-.2-2.5-.6-4.9-.6-7.3ZM78.22 23.1c-.9-2.8-2.4-5.2-3.6-7.8 1-1.9 2-3.9 2.9-5.9.8-1.8 1.4-3.8 3.1-5.1.6-.4.6-.9-.3-1-.9-.1-2.1.2-2.8.7-1.4 1.3-2.4 2.7-3.1 4.4-.9 2.1-1.9 4.1-2.9 6.1-.1.1-.1.3-.2.4-.5.3-.8.8-.6 1.3-.8 1.6-1.6 3.1-2.5 4.6-.3-5.5-1-11.1-1.2-16.6 0-1.3-4-.5-3.9 1 .2 6.9 1.2 13.7 1.3 20.6v.1c-.3.3-.2.5.1.6 0 1.8-.1 3.5-.2 5.3-.5.7.5 1.1 1.1 1.1h.1c.7 0 2.6-.3 2.7-1.4.2-2.1.3-4.2.2-6.3 1.6-1.7 2.9-3.6 4.1-5.6.8 1.5 1.5 3 2 4.6.9 2.7 2.3 5.3 3.1 8 .5 1.8 4.5.7 3.9-1-1-2.8-2.4-5.3-3.3-8.1ZM101.72 18.5c-.2-.8-1.4-.8-2.3-.8v-1c-.1-2.7-.2-5.4-.4-8-.2-2.5-1.6-3.3-4-3.2-2.4.1-5.2.5-7.5 1.4-2.6 1-4.1 2.9-4.6 5.7-.5 3 .2 6.2.4 9.2.2 3.5.1 7 .1 10.5 0 .6 3.9 0 3.9-1V23c0-.8-.1-1.6-.1-2.4 1.4-.6 3.7 0 5.1.1 1.1.1 2.2-.2 3.2-.3 0 2.3.1 4.6.2 6.9 0 1.2.5 3.5-.4 4.5-.4.5 1.5.3 1.6.3.8-.1 1.8-.4 2.3-1 .9-1.1.5-3.8.4-5.1-.1-1.9-.1-3.8-.1-5.7 1.1-.2 2.4-.9 2.2-1.8Zm-14.6-.1c-.1-1.2-.2-2.5-.3-3.7-.2-2.3.1-5.6 2.3-7 .6-.4 1.7-.3 2.4-.4 1-.2 2-.4 2.8.2 1.2.8.9 3.7.9 4.9 0 2 .2 4 .3 6-.6.1-1.1.1-1.7.1-2.3-.2-4.6-.6-6.7-.1ZM24.22 6.7c.5-.1 1-.2 1.5-.5l.2-.2c.5-.3 1-.8.7-1.4-.5-1.1-.4-2.2-.4-3.4 0-1-1-1.2-1.8-1.2-.7.1-2.2.6-2.2 1.5 0 1-.1 2 .1 3 0 .1-.1.2-.1.4-.1.2 0 .4.1.6v.4c.1.2.2.4.4.5.6.3 1.1.3 1.5.3Z" />
      </symbol>

      <symbol viewBox="0 0 27 18" id="social-vk">
        <path
          d="M0 2.839c0-.855.515-1.316 1.545-1.383l3.97.025a.52.52 0 0 1 .533.377c.409 1.257.866 2.343 1.372 3.257.506.913 1.168 1.965 1.985 3.156.071.15.187.226.346.226.125 0 .222-.059.293-.176l.08-.277.027-4.35c0-.302-.075-.503-.226-.604-.151-.1-.431-.176-.84-.226-.32-.05-.48-.235-.48-.553 0-.067.01-.118.027-.151.373-1.09 1.44-1.635 3.198-1.635L13.322.5c.675 0 1.234.16 1.678.478.444.318.666.821.666 1.509v5.708c.125.084.24.126.347.126.266 0 .497-.15.692-.453 1.954-2.582 3.011-4.308 3.17-5.18 0-.017.019-.059.054-.126.125-.251.329-.47.613-.654.284-.184.533-.31.746-.377a.554.554 0 0 1 .24-.05h4.13l.266.025c.355 0 .63.16.826.478.07.1.12.21.146.327.027.117.045.234.054.352.009.117.013.184.013.2v.177c-.124.687-.44 1.42-.946 2.2-.506.78-1.15 1.622-1.931 2.528-.782.905-1.27 1.5-1.466 1.785-.16.201-.24.386-.24.553 0 .135.071.286.213.453l3.89 4.627c.213.269.32.562.32.88 0 .386-.16.705-.48.956-.32.252-.701.394-1.145.428l-.453.025h-4.05a.855.855 0 0 0-.106.012.862.862 0 0 1-.107.013c-.39 0-.755-.16-1.092-.478-.125-.134-.96-1.123-2.505-2.967a1.387 1.387 0 0 0-.373-.327c-.07.268-.164.654-.28 1.157-.115.503-.2.863-.253 1.081l-.08.428c-.177.586-.55.938-1.119 1.056l-.373.025h-2.61c-1.475 0-2.945-.637-4.41-1.911-1.466-1.275-2.784-2.922-3.957-4.942C2.238 8.602 1.146 6.25.133 3.568A1.916 1.916 0 0 1 0 2.838Zm16.013 6.513c-.373 0-.71-.096-1.013-.29-.302-.192-.453-.456-.453-.791V2.487c0-.336-.089-.575-.266-.717-.178-.143-.489-.214-.933-.214l-1.518.05c-.764 0-1.341.126-1.732.378.781.352 1.172.922 1.172 1.71V8.12a1.5 1.5 0 0 1-.533 1.043 1.59 1.59 0 0 1-1.066.415c-.532 0-.94-.243-1.225-.729C7.06 6.871 6.03 4.993 5.356 3.216l-.24-.654-3.544-.025c-.231 0-.36.013-.386.038-.027.025-.04.096-.04.213 0 .151.017.31.053.478l.56 1.409c1.491 3.638 3.112 6.505 4.862 8.6 1.75 2.096 3.468 3.144 5.155 3.144h2.665c.106 0 .186-.03.24-.088.053-.06.097-.172.133-.34l.053-.251.506-2.213c.142-.302.267-.503.373-.604a.975.975 0 0 1 .693-.277c.426 0 .861.243 1.305.73l2.265 2.716c.142.218.293.327.453.327h4.396c.533 0 .8-.126.8-.378a.466.466 0 0 0-.08-.251l-3.864-4.552c-.302-.352-.453-.73-.453-1.131 0-.403.142-.788.427-1.157.23-.336.679-.893 1.345-1.673a37.63 37.63 0 0 0 1.745-2.188c.498-.679.826-1.295.986-1.848l.08-.327a.371.371 0 0 1-.027-.163.574.574 0 0 0-.026-.189h-4.183c-.267.1-.48.252-.64.453l-.16.478c-.444 1.156-1.607 2.942-3.49 5.356a1.892 1.892 0 0 1-1.305.503Z" />
      </symbol>

      <symbol viewBox="0 0 24 20" id="social-yt">
        <path
          d="m15.85 9.293-5.236-3.491a.655.655 0 0 0-1.014.545v6.982a.655.655 0 0 0 1.014.546l5.237-3.491a.655.655 0 0 0 0-1.091Zm-4.94 2.814V7.57l3.403 2.27-3.404 2.268Zm12.48-8.563a2.4 2.4 0 0 0-1.452-1.637C18.218.478 12.251.5 12 .5c-.25 0-6.218-.022-9.938 1.407A2.4 2.4 0 0 0 .61 3.544C.327 4.613 0 6.576 0 9.838c0 3.262.327 5.226.61 6.295a2.4 2.4 0 0 0 1.452 1.636c3.72 1.43 9.687 1.407 9.938 1.407h.076c.753 0 6.317-.043 9.862-1.407a2.4 2.4 0 0 0 1.451-1.636c.284-1.07.611-3.033.611-6.295s-.327-5.225-.61-6.294Zm-1.266 12.261a1.09 1.09 0 0 1-.655.742c-3.49 1.342-9.404 1.32-9.469 1.32-.066 0-5.978.022-9.47-1.32a1.09 1.09 0 0 1-.654-.742c-.261-1.003-.567-2.847-.567-5.967 0-3.12.306-4.963.567-5.967a1.09 1.09 0 0 1 .655-.742C6.02 1.787 11.934 1.81 12 1.81c.066 0 5.978-.022 9.47 1.32a1.092 1.092 0 0 1 .654.742c.262 1.004.567 2.847.567 5.967 0 3.12-.305 4.964-.567 5.968Z" />
      </symbol>

      <symbol viewBox="0 0 20 18" id="social-tg">
        <path
          d="M19.46.653c.18.15.265.382.227.611l-2.626 15.757a.657.657 0 0 1-1.012.439l-7.878-5.253a.656.656 0 0 1-.149-.956l2.611-3.263-4.36 2.906a.657.657 0 0 1-.658.041L.363 8.31a.657.657 0 0 1 .073-1.205L18.819.538a.657.657 0 0 1 .642.115ZM2.327 7.823 5.862 9.59l7.561-5.04a.656.656 0 0 1 .877.956l-4.805 6.006 6.438 4.292L18.208 2.15 2.326 7.823Z" />
      </symbol>

      <symbol viewBox="0 0 27 35" id="academy-logo">
        <path
          d="M13.6 0h-.1L0 1.4v24.7l13.5 8 13.4-8V1.4L13.6 0ZM25 12.1 13.5 5.3v-.1h-.1l-.1-.1v.1L1.9 12.1v-9l11.5-1.2L25 3.1v9ZM13.4 6.8l11.5 6.7-4.5 2.6-7.1-4.2v1.4l5.9 3.5-.9.5-5-3v1.4l3.8 2.3-.8.5-3-1.8v1.4l1.9 1.1-1.8 1.1L2 13.6l11.4-6.8ZM1.9 15.1l11.4 6.8v1l-7.9-4.7v1.4l8 4.8v1.1l-8-4.7v1.4l8 4.8 8.1-4.9v-5.2l3.4-2v10l-11.5 6.9L1.9 25v-9.9Z" />
      </symbol>


      <symbol viewBox="0 0 25 24" id="icon-phone">
        <path
          d="M17.44 24h-1.11c-4.939-.593-8.568-2.864-11.189-5.728C2.521 15.408.403 11.753 0 6.716V5.333c.1-.888.504-1.481 1.109-2.074.605-.69 1.613-1.481 2.52-1.58.706 0 1.815.494 2.218 1.087.403.493.605 1.58.806 2.37.202.889.605 1.975.504 2.765-.201 1.186-1.814 1.68-2.217 2.568 1.612 3.655 4.133 6.42 7.56 8.198.806-.494 1.613-1.877 2.823-1.877.403 0 1.008.198 1.41.297.505.098.908.296 1.311.493.706.297 2.017.593 2.42 1.186.403.592.705 1.58.605 2.172-.303 1.284-2.42 2.667-3.63 3.062ZM12.6 1.481c5.948 0 10.888 4.741 10.888 10.667H25C25 5.432 19.456 0 12.6 0v1.481Z" />
        <path
          d="M12.6 9.185v1.58c.807 0 1.412.593 1.412 1.383h1.613c0-1.58-1.31-2.963-3.024-2.963ZM12.6 6.124c3.327 0 6.15 2.666 6.15 6.024h1.613c0-4.148-3.427-7.506-7.661-7.506v1.482H12.6Z" />
      </symbol>

      <symbol viewBox="0 0 32 21" id="icon-email">
        <path
          d="M28 0H4C1.8 0 0 1.8 0 4v13c0 2.2 1.8 4 4 4h24c2.2 0 4-1.8 4-4V4c0-2.2-1.8-4-4-4ZM2 5.3l7 5.3-7 5.3V5.3ZM30 17c0 1.1-.9 2-2 2H4c-1.1 0-2-.9-2-2l7.8-5.9 4.4 3.3c.5.4 1.2.6 1.8.6.6 0 1.3-.2 1.8-.6l4.4-3.3L30 17Zm0-1.2-7-5.3 7-5.3v10.6Zm-12.8-2.2c-.4.3-.8.4-1.2.4-.4 0-.9-.1-1.2-.4l-4.1-3.1-.8-.6L2 4c0-1.1.9-2 2-2h24c1.1 0 2 .9 2 2l-12.8 9.6Z" />
      </symbol>

    </svg>
